<?xml version="1.0" encoding="UTF-8" standalone="no"?>
<svg width="677.333mm" height="381mm"
 viewBox="0 0 1920 1080"
 xmlns="http://www.w3.org/2000/svg" xmlns:xlink="http://www.w3.org/1999/xlink"  version="1.2" baseProfile="tiny">
<title>Qt Svg Document</title>
<desc>Generated with Qt</desc>
<defs>
</defs>
<g fill="none" stroke="black" stroke-width="1" fill-rule="evenodd" stroke-linecap="square" stroke-linejoin="bevel" >

<g fill="#ffffff" fill-opacity="1" stroke="none" transform="matrix(1,0,0,1,0,0)"
font-family="MS Shell Dlg 2" font-size="8.25" font-weight="400" font-style="normal" 
>
<path vector-effect="non-scaling-stroke" fill-rule="evenodd" d="M0,0 L1920,0 L1920,1080 L0,1080 L0,0"/>
<path vector-effect="non-scaling-stroke" fill-rule="evenodd" d="M0,0 L1920,0 L1920,1080 L0,1080 L0,0"/>
</g>

<g fill="#0e5ea2" fill-opacity="1" stroke="none" transform="matrix(1,0,0,1,0,0)"
font-family="MS Shell Dlg 2" font-size="8.25" font-weight="400" font-style="normal" 
>
<path vector-effect="non-scaling-stroke" fill-rule="evenodd" d="M121,63 L1797,63 L1797,167 L121,167 L121,63"/>
</g>

<g fill="#ffffff" fill-opacity="1" stroke="#ffffff" stroke-opacity="1" stroke-width="1" stroke-linecap="square" stroke-linejoin="bevel" transform="matrix(1,0,0,1,0,0)"
font-family="Times New Roman" font-size="32" font-weight="700" font-style="normal" 
>
<text fill="#ffffff" fill-opacity="1" stroke="none" xml:space="preserve" x="870.5" y="125" font-family="Times New Roman" font-size="32" font-weight="700" font-style="normal" 
 >Change Title</text>
</g>

<g fill="#3d8aca" fill-opacity="1" stroke="none" transform="matrix(1,0,0,1,0,0)"
font-family="Times New Roman" font-size="32" font-weight="700" font-style="normal" 
>
<path vector-effect="non-scaling-stroke" fill-rule="evenodd" d="M121,222 L454,222 L454,273 L121,273 L121,222"/>
</g>

<g fill="#ffffff" fill-opacity="1" stroke="#ffffff" stroke-opacity="1" stroke-width="1" stroke-linecap="square" stroke-linejoin="bevel" transform="matrix(1,0,0,1,0,0)"
font-family="Times New Roman" font-size="24" font-weight="700" font-style="normal" 
>
<text fill="#ffffff" fill-opacity="1" stroke="none" xml:space="preserve" x="279" y="255" font-family="Times New Roman" font-size="24" font-weight="700" font-style="normal" 
 >A</text>
</g>

<g fill="#7eb939" fill-opacity="1" stroke="none" transform="matrix(1,0,0,1,0,0)"
font-family="Times New Roman" font-size="24" font-weight="700" font-style="normal" 
>
<path vector-effect="non-scaling-stroke" fill-rule="evenodd" d="M456,222 L789,222 L789,273 L456,273 L456,222"/>
</g>

<g fill="#ffffff" fill-opacity="1" stroke="#ffffff" stroke-opacity="1" stroke-width="1" stroke-linecap="square" stroke-linejoin="bevel" transform="matrix(1,0,0,1,0,0)"
font-family="Times New Roman" font-size="24" font-weight="700" font-style="normal" 
>
<text fill="#ffffff" fill-opacity="1" stroke="none" xml:space="preserve" x="614" y="255" font-family="Times New Roman" font-size="24" font-weight="700" font-style="normal" 
 >D</text>
</g>

<g fill="#dc7b30" fill-opacity="1" stroke="none" transform="matrix(1,0,0,1,0,0)"
font-family="Times New Roman" font-size="24" font-weight="700" font-style="normal" 
>
<path vector-effect="non-scaling-stroke" fill-rule="evenodd" d="M791,222 L1125,222 L1125,273 L791,273 L791,222"/>
</g>

<g fill="#ffffff" fill-opacity="1" stroke="#ffffff" stroke-opacity="1" stroke-width="1" stroke-linecap="square" stroke-linejoin="bevel" transform="matrix(1,0,0,1,0,0)"
font-family="Times New Roman" font-size="24" font-weight="700" font-style="normal" 
>
<text fill="#ffffff" fill-opacity="1" stroke="none" xml:space="preserve" x="948.5" y="255" font-family="Times New Roman" font-size="24" font-weight="700" font-style="normal" 
 >K</text>
</g>

<g fill="#d13438" fill-opacity="1" stroke="none" transform="matrix(1,0,0,1,0,0)"
font-family="Times New Roman" font-size="24" font-weight="700" font-style="normal" 
>
<path vector-effect="non-scaling-stroke" fill-rule="evenodd" d="M1127,222 L1461,222 L1461,273 L1127,273 L1127,222"/>
</g>

<g fill="#ffffff" fill-opacity="1" stroke="#ffffff" stroke-opacity="1" stroke-width="1" stroke-linecap="square" stroke-linejoin="bevel" transform="matrix(1,0,0,1,0,0)"
font-family="Times New Roman" font-size="24" font-weight="700" font-style="normal" 
>
<text fill="#ffffff" fill-opacity="1" stroke="none" xml:space="preserve" x="1285.5" y="255" font-family="Times New Roman" font-size="24" font-weight="700" font-style="normal" 
 >A</text>
</g>

<g fill="#0b4d85" fill-opacity="1" stroke="none" transform="matrix(1,0,0,1,0,0)"
font-family="Times New Roman" font-size="24" font-weight="700" font-style="normal" 
>
<path vector-effect="non-scaling-stroke" fill-rule="evenodd" d="M1463,222 L1797,222 L1797,273 L1463,273 L1463,222"/>
</g>

<g fill="#ffffff" fill-opacity="1" stroke="#ffffff" stroke-opacity="1" stroke-width="1" stroke-linecap="square" stroke-linejoin="bevel" transform="matrix(1,0,0,1,0,0)"
font-family="Times New Roman" font-size="24" font-weight="700" font-style="normal" 
>
<text fill="#ffffff" fill-opacity="1" stroke="none" xml:space="preserve" x="1621.5" y="255" font-family="Times New Roman" font-size="24" font-weight="700" font-style="normal" 
 >R</text>
</g>

<g fill="#3d8aca" fill-opacity="1" stroke="none" transform="matrix(1,0,0,1,0,0)"
font-family="Times New Roman" font-size="24" font-weight="700" font-style="normal" 
>
<path vector-effect="non-scaling-stroke" fill-rule="evenodd" d="M121,275 L454,275 L454,326 L121,326 L121,275"/>
</g>

<g fill="#000000" fill-opacity="1" stroke="#000000" stroke-opacity="1" stroke-width="1" stroke-linecap="square" stroke-linejoin="bevel" transform="matrix(1,0,0,1,0,0)"
font-family="Times New Roman" font-size="16" font-weight="400" font-style="normal" 
>
<text fill="#000000" fill-opacity="1" stroke="none" xml:space="preserve" x="254" y="305" font-family="Times New Roman" font-size="16" font-weight="400" font-style="normal" 
 >Awareness</text>
</g>

<g fill="#7eb939" fill-opacity="1" stroke="none" transform="matrix(1,0,0,1,0,0)"
font-family="Times New Roman" font-size="16" font-weight="400" font-style="normal" 
>
<path vector-effect="non-scaling-stroke" fill-rule="evenodd" d="M456,275 L789,275 L789,326 L456,326 L456,275"/>
</g>

<g fill="#000000" fill-opacity="1" stroke="#000000" stroke-opacity="1" stroke-width="1" stroke-linecap="square" stroke-linejoin="bevel" transform="matrix(1,0,0,1,0,0)"
font-family="Times New Roman" font-size="16" font-weight="400" font-style="normal" 
>
<text fill="#000000" fill-opacity="1" stroke="none" xml:space="preserve" x="603" y="305" font-family="Times New Roman" font-size="16" font-weight="400" font-style="normal" 
 >Desire</text>
</g>

<g fill="#dc7b30" fill-opacity="1" stroke="none" transform="matrix(1,0,0,1,0,0)"
font-family="Times New Roman" font-size="16" font-weight="400" font-style="normal" 
>
<path vector-effect="non-scaling-stroke" fill-rule="evenodd" d="M791,275 L1125,275 L1125,326 L791,326 L791,275"/>
</g>

<g fill="#000000" fill-opacity="1" stroke="#000000" stroke-opacity="1" stroke-width="1" stroke-linecap="square" stroke-linejoin="bevel" transform="matrix(1,0,0,1,0,0)"
font-family="Times New Roman" font-size="16" font-weight="400" font-style="normal" 
>
<text fill="#000000" fill-opacity="1" stroke="none" xml:space="preserve" x="923" y="305" font-family="Times New Roman" font-size="16" font-weight="400" font-style="normal" 
 >Knowledge</text>
</g>

<g fill="#d13438" fill-opacity="1" stroke="none" transform="matrix(1,0,0,1,0,0)"
font-family="Times New Roman" font-size="16" font-weight="400" font-style="normal" 
>
<path vector-effect="non-scaling-stroke" fill-rule="evenodd" d="M1127,275 L1461,275 L1461,326 L1127,326 L1127,275"/>
</g>

<g fill="#ffffff" fill-opacity="1" stroke="#ffffff" stroke-opacity="1" stroke-width="1" stroke-linecap="square" stroke-linejoin="bevel" transform="matrix(1,0,0,1,0,0)"
font-family="Times New Roman" font-size="16" font-weight="400" font-style="normal" 
>
<text fill="#ffffff" fill-opacity="1" stroke="none" xml:space="preserve" x="1274.5" y="305" font-family="Times New Roman" font-size="16" font-weight="400" font-style="normal" 
 >Ability</text>
</g>

<g fill="#0b4d85" fill-opacity="1" stroke="none" transform="matrix(1,0,0,1,0,0)"
font-family="Times New Roman" font-size="16" font-weight="400" font-style="normal" 
>
<path vector-effect="non-scaling-stroke" fill-rule="evenodd" d="M1463,275 L1797,275 L1797,326 L1463,326 L1463,275"/>
</g>

<g fill="#ffffff" fill-opacity="1" stroke="#ffffff" stroke-opacity="1" stroke-width="1" stroke-linecap="square" stroke-linejoin="bevel" transform="matrix(1,0,0,1,0,0)"
font-family="Times New Roman" font-size="16" font-weight="400" font-style="normal" 
>
<text fill="#ffffff" fill-opacity="1" stroke="none" xml:space="preserve" x="1586.5" y="305" font-family="Times New Roman" font-size="16" font-weight="400" font-style="normal" 
 >Reinforcement</text>
</g>

<g fill="#e0e0e0" fill-opacity="1" stroke="none" transform="matrix(1,0,0,1,0,0)"
font-family="Times New Roman" font-size="16" font-weight="400" font-style="normal" 
>
<path vector-effect="non-scaling-stroke" fill-rule="evenodd" d="M121,328 L454,328 L454,962 L121,962 L121,328"/>
<path vector-effect="non-scaling-stroke" fill-rule="evenodd" d="M456,328 L789,328 L789,962 L456,962 L456,328"/>
<path vector-effect="non-scaling-stroke" fill-rule="evenodd" d="M791,328 L1125,328 L1125,962 L791,962 L791,328"/>
<path vector-effect="non-scaling-stroke" fill-rule="evenodd" d="M1127,328 L1461,328 L1461,962 L1127,962 L1127,328"/>
<path vector-effect="non-scaling-stroke" fill-rule="evenodd" d="M1463,328 L1797,328 L1797,962 L1463,962 L1463,328"/>
</g>

<g fill="#bdbdbd" fill-opacity="1" stroke="none" transform="matrix(1,0,0,1,0,0)"
font-family="Times New Roman" font-size="16" font-weight="400" font-style="normal" 
>
<path vector-effect="non-scaling-stroke" fill-rule="evenodd" d="M121,964 L454,964 L454,1015 L121,1015 L121,964"/>
</g>

<g fill="#000000" fill-opacity="1" stroke="#000000" stroke-opacity="1" stroke-width="1" stroke-linecap="square" stroke-linejoin="bevel" transform="matrix(1,0,0,1,0,0)"
font-family="Times New Roman" font-size="16" font-weight="400" font-style="normal" 
>
<text fill="#000000" fill-opacity="1" stroke="none" xml:space="preserve" x="232" y="994" font-family="Times New Roman" font-size="16" font-weight="400" font-style="normal" 
 >Pre-contemplation</text>
</g>

<g fill="#bdbdbd" fill-opacity="1" stroke="none" transform="matrix(1,0,0,1,0,0)"
font-family="Times New Roman" font-size="16" font-weight="400" font-style="normal" 
>
<path vector-effect="non-scaling-stroke" fill-rule="evenodd" d="M456,964 L789,964 L789,1015 L456,1015 L456,964"/>
</g>

<g fill="#000000" fill-opacity="1" stroke="#000000" stroke-opacity="1" stroke-width="1" stroke-linecap="square" stroke-linejoin="bevel" transform="matrix(1,0,0,1,0,0)"
font-family="Times New Roman" font-size="16" font-weight="400" font-style="normal" 
>
<text fill="#000000" fill-opacity="1" stroke="none" xml:space="preserve" x="578.5" y="994" font-family="Times New Roman" font-size="16" font-weight="400" font-style="normal" 
 >Contemplation</text>
</g>

<g fill="#bdbdbd" fill-opacity="1" stroke="none" transform="matrix(1,0,0,1,0,0)"
font-family="Times New Roman" font-size="16" font-weight="400" font-style="normal" 
>
<path vector-effect="non-scaling-stroke" fill-rule="evenodd" d="M791,964 L1125,964 L1125,1015 L791,1015 L791,964"/>
</g>

<g fill="#000000" fill-opacity="1" stroke="#000000" stroke-opacity="1" stroke-width="1" stroke-linecap="square" stroke-linejoin="bevel" transform="matrix(1,0,0,1,0,0)"
font-family="Times New Roman" font-size="16" font-weight="400" font-style="normal" 
>
<text fill="#000000" fill-opacity="1" stroke="none" xml:space="preserve" x="923" y="994" font-family="Times New Roman" font-size="16" font-weight="400" font-style="normal" 
 >Knowledge</text>
</g>

<g fill="#bdbdbd" fill-opacity="1" stroke="none" transform="matrix(1,0,0,1,0,0)"
font-family="Times New Roman" font-size="16" font-weight="400" font-style="normal" 
>
<path vector-effect="non-scaling-stroke" fill-rule="evenodd" d="M1127,964 L1461,964 L1461,1015 L1127,1015 L1127,964"/>
</g>

<g fill="#000000" fill-opacity="1" stroke="#000000" stroke-opacity="1" stroke-width="1" stroke-linecap="square" stroke-linejoin="bevel" transform="matrix(1,0,0,1,0,0)"
font-family="Times New Roman" font-size="16" font-weight="400" font-style="normal" 
>
<text fill="#000000" fill-opacity="1" stroke="none" xml:space="preserve" x="1274" y="994" font-family="Times New Roman" font-size="16" font-weight="400" font-style="normal" 
 >Action</text>
</g>

<g fill="#bdbdbd" fill-opacity="1" stroke="none" transform="matrix(1,0,0,1,0,0)"
font-family="Times New Roman" font-size="16" font-weight="400" font-style="normal" 
>
<path vector-effect="non-scaling-stroke" fill-rule="evenodd" d="M1463,964 L1797,964 L1797,1015 L1463,1015 L1463,964"/>
</g>

<g fill="#000000" fill-opacity="1" stroke="#000000" stroke-opacity="1" stroke-width="1" stroke-linecap="square" stroke-linejoin="bevel" transform="matrix(1,0,0,1,0,0)"
font-family="Times New Roman" font-size="16" font-weight="400" font-style="normal" 
>
<text fill="#000000" fill-opacity="1" stroke="none" xml:space="preserve" x="1591.5" y="994" font-family="Times New Roman" font-size="16" font-weight="400" font-style="normal" 
 >Maintenance</text>
</g>

<g fill="#000000" fill-opacity="1" stroke="none" transform="matrix(1,0,0,1,0,0)"
font-family="Times New Roman" font-size="16" font-weight="400" font-style="normal" 
>
<path vector-effect="non-scaling-stroke" fill-rule="evenodd" d="M121,1017 L1125,1017 L1125,1068 L121,1068 L121,1017"/>
</g>

<g fill="#ffffff" fill-opacity="1" stroke="#ffffff" stroke-opacity="1" stroke-width="1" stroke-linecap="square" stroke-linejoin="bevel" transform="matrix(1,0,0,1,0,0)"
font-family="Times New Roman" font-size="16" font-weight="400" font-style="normal" 
>
<text fill="#ffffff" fill-opacity="1" stroke="none" xml:space="preserve" x="570.5" y="1047" font-family="Times New Roman" font-size="16" font-weight="400" font-style="normal" 
 >Enablement Zone</text>
</g>

<g fill="#757575" fill-opacity="1" stroke="none" transform="matrix(1,0,0,1,0,0)"
font-family="Times New Roman" font-size="16" font-weight="400" font-style="normal" 
>
<path vector-effect="non-scaling-stroke" fill-rule="evenodd" d="M1127,1017 L1797,1017 L1797,1068 L1127,1068 L1127,1017"/>
</g>

<g fill="#ffffff" fill-opacity="1" stroke="#ffffff" stroke-opacity="1" stroke-width="1" stroke-linecap="square" stroke-linejoin="bevel" transform="matrix(1,0,0,1,0,0)"
font-family="Times New Roman" font-size="16" font-weight="400" font-style="normal" 
>
<text fill="#ffffff" fill-opacity="1" stroke="none" xml:space="preserve" x="1408" y="1047" font-family="Times New Roman" font-size="16" font-weight="400" font-style="normal" 
 >Engagement Zone</text>
</g>
</g>
</svg>
