<svg fill="#000000" width="256px" height="256px" viewBox="0 0 22 22" xmlns="http://www.w3.org/2000/svg" id="memory-border-top"><g id="SVGRepo_bgCarrier" stroke-width="0"></g><g id="SVGRepo_tracerCarrier" stroke-linecap="round" stroke-linejoin="round"></g><g id="SVGRepo_iconCarrier"><path d="M2 10H4V12H2V10M18 10H20V12H18V10M10 18H12V20H10V18M6 18H8V20H6V18M2 14H4V16H2V14M2 18H4V20H2V18M2 6H4V8H2V6M18 6H20V8H18V6M14 18H16V20H14V18M18 18H20V20H18V18M18 14H20V16H18V14M2 2H20V4H2V2Z"></path></g></svg>