<svg id="SvgjsSvg1001" width="256" height="256" xmlns="http://www.w3.org/2000/svg" version="1.1" xmlns:xlink="http://www.w3.org/1999/xlink" xmlns:svgjs="http://svgjs.com/svgjs"><defs id="SvgjsDefs1002"></defs><g id="SvgjsG1008"><svg xmlns="http://www.w3.org/2000/svg" data-name="Layer 1" viewBox="0 0 24 24" width="256" height="256"><path d="M18.858,12.152a.5.5,0,0,1,0,.707l-2,2a.5.5,0,0,1-.707-.707L17.3,13l-2.8,0V12h2.8l-1.149-1.149a.5.5,0,0,1,.707-.708Zm-12.712,0a.5.5,0,0,0,0,.707l2,2a.5.5,0,1,0,.707-.707L7.7,13l2.8,0V12h-2.8l1.149-1.149a.5.5,0,0,0-.707-.708ZM12.5,6a.5.5,0,0,0,.5-.5v-1a.5.5,0,0,0-1,0v1A.5.5,0,0,0,12.5,6Zm0,3a.5.5,0,0,0,.5-.5v-1a.5.5,0,0,0-1,0v1A.5.5,0,0,0,12.5,9Zm0,3a.5.5,0,0,0,.5-.5v-1a.5.5,0,0,0-1,0v1A.5.5,0,0,0,12.5,12Zm0,3a.5.5,0,0,0,.5-.5v-1a.5.5,0,0,0-1,0v1A.5.5,0,0,0,12.5,15Zm0,3a.5.5,0,0,0,.5-.5v-1a.5.5,0,0,0-1,0v1A.5.5,0,0,0,12.5,18Zm0,3a.5.5,0,0,0,.5-.5v-1a.5.5,0,0,0-1,0v1A.5.5,0,0,0,12.5,21Zm-6,0h4a.5.5,0,0,0,0-1h-4A1.5,1.5,0,0,1,5,18.5V6.5A1.5,1.5,0,0,1,6.5,5h4a.5.5,0,0,0,0-1h-4A2.5,2.5,0,0,0,4,6.5v12A2.5,2.5,0,0,0,6.5,21ZM18.505,4h-4a.5.5,0,0,0,0,1h4a1.5,1.5,0,0,1,1.5,1.5v12a1.5,1.5,0,0,1-1.5,1.5h-4a.5.5,0,0,0,0,1h4a2.5,2.5,0,0,0,2.5-2.5V6.5A2.5,2.5,0,0,0,18.505,4Z" fill="#000000" class="color000 svgShape"></path></svg></g></svg>